<?xml version="1.0" standalone="no"?><!DOCTYPE svg PUBLIC "-//W3C//DTD SVG 1.1//EN" "http://www.w3.org/Graphics/SVG/1.1/DTD/svg11.dtd"><svg t="1730039768992" class="icon" viewBox="0 0 1024 1024" version="1.1" xmlns="http://www.w3.org/2000/svg" p-id="2092" xmlns:xlink="http://www.w3.org/1999/xlink" width="200" height="200"><path d="M682.688 64v128H128V125.12c0-31.36 24.704-57.152 56.512-60.736L192 64h490.688z m142.72 0c36.416 0 66.368 23.36 70.208 53.312l0.384 6.464V192h-164.608V64h94.08z" fill="#34C7FF" p-id="2093"></path><path d="M682.688 127.872V320H128V127.872h554.688z m213.312 0V320h-164.608V127.872H896z" fill="#36C0FF" p-id="2094"></path><path d="M682.688 256v192H128V256h554.688zM896 256v192h-164.608V256H896z" fill="#39B9FF" p-id="2095"></path><path d="M682.688 384v192H128V384h554.688zM896 384v192h-164.608V384H896z" fill="#3CB1FF" p-id="2096"></path><path d="M682.688 512v192H128V512h554.688zM896 512v192h-164.608V512H896z" fill="#3FA8FF" p-id="2097"></path><path d="M682.688 640v177.472h-448a43.52 43.52 0 0 0-32.704 14.528H128v-192h554.688zM896 640v102.016c0 30.848-27.52 56.32-62.848 59.52l-7.68 0.32h-94.08V640H896z" fill="#42A0FF" p-id="2098"></path><path d="M682.688 768v49.472h-448c-23.552 0-42.688 18.24-42.688 40.704 0 10.88 4.48 21.184 12.544 28.8 6.4 6.144 14.656 10.112 23.424 11.456l6.72 0.448H864c8.448 0 16.64 3.2 22.592 8.96a30.08 30.08 0 0 1 9.408 21.632 30.08 30.08 0 0 1-9.408 21.632 32.32 32.32 0 0 1-16.384 8.32L864 960H234.688a108.608 108.608 0 0 1-75.328-29.696 100.544 100.544 0 0 1-30.784-62.08L128 858.24V768h554.688z m150.4 33.536l-7.68 0.32H731.52L731.392 768h157.632a69.504 69.504 0 0 1-46.848 32.192l-9.024 1.344z" fill="#4598FF" p-id="2099"></path><path d="M227.968 898.432l6.72 0.448H864c8.448 0 16.64 3.2 22.592 8.96a30.08 30.08 0 0 1 9.408 21.632 30.08 30.08 0 0 1-9.408 21.632 32.32 32.32 0 0 1-16.384 8.32L864 960H234.688a108.608 108.608 0 0 1-75.328-29.696 101.952 101.952 0 0 1-23.616-34.176h83.52c2.816 1.088 5.76 1.856 8.704 2.304z" fill="#4792FF" p-id="2100"></path></svg>